<svg width="110" height="67" viewBox="0 0 110 67" fill="none" xmlns="http://www.w3.org/2000/svg">
<line x1="4.99817" y1="0.0604951" x2="0.998168" y2="66.0605" stroke="#FFC265" stroke-width="2"/>
<path d="M3.76801 33.6503L37 10" stroke="#FFC265" stroke-width="4" stroke-linecap="round"/>
<path d="M4 34L35.678 61.3045" stroke="#FFC265" stroke-width="4" stroke-linecap="round"/>
<path d="M41.72 19.4C42.4133 19.4 43.0133 19.6533 43.52 20.16C44.0267 20.6667 44.28 21.2667 44.28 21.96C44.28 22.6533 44.0267 23.2533 43.52 23.76C43.0133 24.2667 42.4133 24.52 41.72 24.52C41.0267 24.52 40.4267 24.2667 39.92 23.76C39.4133 23.2533 39.16 22.6533 39.16 21.96C39.16 21.2667 39.4133 20.6667 39.92 20.16C40.4267 19.6533 41.0267 19.4 41.72 19.4ZM43.8 28.96V46.28C43.8 47.4 44.0267 48.16 44.48 48.56C44.96 48.96 45.7467 49.16 46.84 49.16V50C46.3867 49.9733 45.6933 49.9467 44.76 49.92C43.8533 49.8667 42.9333 49.84 42 49.84C41.0933 49.84 40.1733 49.8667 39.24 49.92C38.3067 49.9467 37.6133 49.9733 37.16 50V49.16C38.2533 49.16 39.0267 48.96 39.48 48.56C39.96 48.16 40.2 47.4 40.2 46.28V33.76C40.2 32.56 39.9867 31.68 39.56 31.12C39.1333 30.5333 38.3333 30.24 37.16 30.24V29.4C38.0133 29.48 38.84 29.52 39.64 29.52C40.4133 29.52 41.1467 29.48 41.84 29.4C42.56 29.2933 43.2133 29.1467 43.8 28.96ZM56.0388 28.84C57.1054 28.84 58.0121 29.0133 58.7588 29.36C59.5054 29.7067 60.0521 30.0267 60.3988 30.32C61.2788 31.04 61.8121 30.56 61.9988 28.88H62.9188C62.8654 29.6267 62.8254 30.52 62.7988 31.56C62.7721 32.5733 62.7588 33.9467 62.7588 35.68H61.8388C61.6788 34.6933 61.3988 33.7333 60.9988 32.8C60.6254 31.8667 60.0654 31.1067 59.3188 30.52C58.5721 29.9067 57.5988 29.6 56.3988 29.6C55.4654 29.6 54.6788 29.8667 54.0388 30.4C53.4254 30.9067 53.1188 31.6667 53.1188 32.68C53.1188 33.48 53.3588 34.1733 53.8388 34.76C54.3188 35.32 54.9454 35.8533 55.7188 36.36C56.4921 36.84 57.3321 37.3733 58.2388 37.96C59.2521 38.6 60.1721 39.2533 60.9988 39.92C61.8254 40.5867 62.4788 41.32 62.9588 42.12C63.4654 42.92 63.7188 43.8667 63.7188 44.96C63.7188 46.1867 63.3988 47.2133 62.7588 48.04C62.1188 48.8667 61.2788 49.4933 60.2388 49.92C59.2254 50.3467 58.1054 50.56 56.8788 50.56C56.2921 50.56 55.7321 50.5067 55.1988 50.4C54.6921 50.32 54.1988 50.1867 53.7188 50C53.4521 49.8667 53.1721 49.7067 52.8788 49.52C52.6121 49.3333 52.3454 49.1333 52.0788 48.92C51.8121 48.7067 51.5721 48.72 51.3588 48.96C51.1454 49.1733 50.9854 49.6133 50.8788 50.28H49.9588C50.0121 49.4267 50.0521 48.3867 50.0788 47.16C50.1054 45.9333 50.1188 44.3067 50.1188 42.28H51.0388C51.2254 43.7733 51.4921 45.08 51.8388 46.2C52.1854 47.32 52.7321 48.2 53.4788 48.84C54.2254 49.4533 55.2654 49.76 56.5988 49.76C57.1321 49.76 57.6654 49.64 58.1988 49.4C58.7588 49.16 59.2254 48.76 59.5988 48.2C59.9721 47.64 60.1588 46.8933 60.1588 45.96C60.1588 44.7867 59.7321 43.8267 58.8788 43.08C58.0254 42.3333 56.9454 41.5467 55.6388 40.72C54.6788 40.1067 53.7721 39.4933 52.9188 38.88C52.0921 38.2667 51.4121 37.5733 50.8788 36.8C50.3721 36.0267 50.1188 35.0933 50.1188 34C50.1188 32.8 50.3854 31.8267 50.9188 31.08C51.4788 30.3067 52.2121 29.7467 53.1188 29.4C54.0254 29.0267 54.9988 28.84 56.0388 28.84ZM76.4894 28.84C78.836 28.84 80.6627 29.56 81.9694 31C83.3027 32.4133 83.9694 34.6267 83.9694 37.64H69.8494L69.8094 36.88H80.1294C80.1827 35.5733 80.076 34.3733 79.8094 33.28C79.5427 32.16 79.116 31.2667 78.5294 30.6C77.9694 29.9333 77.236 29.6 76.3294 29.6C75.1027 29.6 74.0094 30.2133 73.0494 31.44C72.116 32.6667 71.556 34.6133 71.3694 37.28L71.4894 37.44C71.436 37.84 71.396 38.28 71.3694 38.76C71.3427 39.24 71.3294 39.72 71.3294 40.2C71.3294 42.0133 71.6227 43.5733 72.2094 44.88C72.796 46.1867 73.556 47.1867 74.4894 47.88C75.4494 48.5467 76.436 48.88 77.4494 48.88C78.2494 48.88 79.0094 48.76 79.7294 48.52C80.4494 48.2533 81.116 47.8267 81.7294 47.24C82.3427 46.6533 82.876 45.8667 83.3294 44.88L84.1294 45.2C83.836 46.08 83.356 46.9333 82.6894 47.76C82.0227 48.5867 81.1827 49.2667 80.1694 49.8C79.156 50.3067 77.9827 50.56 76.6494 50.56C74.7294 50.56 73.076 50.12 71.6894 49.24C70.3294 48.36 69.276 47.1467 68.5294 45.6C67.8094 44.0267 67.4494 42.2267 67.4494 40.2C67.4494 37.8533 67.8227 35.84 68.5694 34.16C69.316 32.4533 70.3694 31.1467 71.7294 30.24C73.0894 29.3067 74.676 28.84 76.4894 28.84ZM93.3638 28.96V53.52C93.3638 54.6667 93.6971 55.4267 94.3638 55.8C95.0571 56.2 96.0038 56.4 97.2038 56.4V57.24C96.6171 57.2133 95.8038 57.1733 94.7638 57.12C93.7238 57.0933 92.6171 57.08 91.4438 57.08C90.6171 57.08 89.7904 57.0933 88.9638 57.12C88.1638 57.1733 87.5504 57.2133 87.1238 57.24V56.4C88.0838 56.4 88.7638 56.2267 89.1638 55.88C89.5638 55.5333 89.7638 54.88 89.7638 53.92V33.76C89.7638 32.56 89.5504 31.68 89.1238 31.12C88.6971 30.5333 87.8971 30.24 86.7238 30.24V29.4C87.5771 29.48 88.4038 29.52 89.2038 29.52C89.9771 29.52 90.7104 29.48 91.4038 29.4C92.1238 29.2933 92.7771 29.1467 93.3638 28.96ZM99.7638 28.84C101.177 28.84 102.444 29.2267 103.564 30C104.684 30.7467 105.564 31.8533 106.204 33.32C106.87 34.7867 107.204 36.6 107.204 38.76C107.204 40.2 107.03 41.6267 106.684 43.04C106.337 44.4267 105.79 45.6933 105.044 46.84C104.324 47.96 103.377 48.8667 102.204 49.56C101.057 50.2267 99.6704 50.56 98.0438 50.56C96.7904 50.56 95.6971 50.2667 94.7638 49.68C93.8571 49.0933 93.2438 48.3867 92.9238 47.56L93.3238 47C93.6971 47.7467 94.2304 48.3733 94.9238 48.88C95.6438 49.3867 96.5371 49.64 97.6037 49.64C99.0971 49.64 100.257 49.1733 101.084 48.24C101.91 47.3067 102.484 46.0667 102.804 44.52C103.15 42.9467 103.324 41.2133 103.324 39.32C103.324 37.1867 103.15 35.44 102.804 34.08C102.457 32.72 101.937 31.7067 101.244 31.04C100.55 30.3733 99.6971 30.04 98.6838 30.04C97.3771 30.04 96.1904 30.5867 95.1238 31.68C94.0571 32.7467 93.3771 34.3733 93.0838 36.56L92.6038 36C92.8971 33.7333 93.6971 31.9733 95.0038 30.72C96.3371 29.4667 97.9238 28.84 99.7638 28.84Z" fill="#04AA6D"/>
</svg>
